# This file uses centimeters as units for non-parametric coordinates.

mtllib boulder.mtl
g default
v 2.014744 0.544258 -2.304020
v -1.961689 6.596957 2.304021
v -1.423964 0.540492 -3.613336
v -3.491305 5.489809 -0.890670
v -2.983953 6.539118 -1.912032
v -2.294831 5.000002 -2.948786
v -3.392705 3.739999 -2.841955
v -2.454932 2.772215 3.319567
v -2.077499 0.506734 2.304020
v -2.372299 7.334184 -1.709541
v -1.843771 7.496143 0.067338
v -0.759529 8.076180 -0.135573
v -0.566698 7.791352 -1.706426
v -0.412746 3.707382 -3.874698
v -1.058833 5.000002 -3.374227
v 0.753650 5.444938 -3.379834
v 0.854003 3.978537 -3.443704
v 1.128978 0.458291 0.870685
v 2.564822 0.309953 0.873364
v 2.284316 1.449486 2.340509
v 0.823576 0.453808 2.304020
v -1.325694 4.240451 3.989002
v 0.303810 4.938797 3.893184
v -0.114358 6.060852 3.612696
v -1.351540 5.798400 3.319770
v -2.973167 2.586656 2.811743
v -3.324397 2.858959 2.304021
v -3.491300 2.806745 1.884487
v -3.203471 0.543333 0.015059
v -3.027946 0.533401 0.974389
v -3.392699 0.911067 0.084075
v 2.464355 4.812295 2.979356
v 2.989682 3.095030 2.399700
v 3.259102 3.519014 1.223465
v 0.174204 8.026836 1.143475
v -0.282463 7.376648 2.304021
v 0.532431 7.154914 2.867451
v 1.344619 7.663615 1.262688
v 1.953179 7.063990 -0.698105
v 2.213043 5.903915 -1.717920
v 1.641351 6.240199 -2.336941
v 1.233824 7.142407 -1.657822
v 2.962952 5.087747 2.034939
v 3.284822 4.399482 1.300021
v 2.676934 6.048072 1.339861
vt 0.136189 0.166916
vt 0.181450 0.318729
vt 0.187816 0.424830
vt 0.010281 0.509405
vt 0.259766 0.522605
vt 0.196380 0.654255
vt 0.158222 0.655965
vt 0.269348 0.651001
vt 0.315269 0.567103
vt 0.356297 0.652332
vt 0.382796 0.271629
vt 0.447902 0.121766
vt 0.467482 0.117623
vt 0.534487 0.296057
vt 0.020933 0.681538
vt 0.229734 0.721979
vt 0.353794 0.734610
vt 0.322881 0.794302
vt 0.269799 0.806174
vt 0.345693 0.851606
vt 0.215077 0.943695
vt 0.264209 0.874603
vt 0.088314 0.741138
vt 0.156188 0.706694
vt 0.434214 -0.000000
vt 0.052628 0.814574
vt 0.280818 0.240807
vt 0.333250 0.073644
vt 0.358182 0.328217
vt 0.281885 0.308410
vt 0.484848 0.093146
vt 0.365688 0.037559
vt 0.374094 0.366330
vt 0.239997 0.347770
vt 0.263943 0.429245
vt 0.368959 0.445210
vt 0.332589 0.521969
vt 0.282616 0.495924
vt 0.451756 0.367864
vt 0.536640 0.427515
vt 0.573789 0.367814
vt 0.447370 0.579767
vt 0.000000 0.757464
vt 0.319953 0.061133
vt 0.230379 0.679638
vt 0.399871 0.736148
vt 0.584876 0.259214
vt 0.243555 1.000000
vt 0.517318 0.084118
vt 0.406561 0.651455
vt 0.202210 0.419142
vt 0.414797 0.499763
vt 0.144160 0.366689
vt 0.000000 0.268323
vt 0.457773 0.421105
vt 0.095039 0.948329
vn 0.350360 -0.186857 -0.917787
vn 0.174513 -0.082216 -0.981217
vn 0.496714 -0.046816 -0.866651
vn 0.350360 -0.186857 -0.917787
vn 0.942604 0.001619 -0.333909
vn 0.939072 0.166348 -0.300786
vn 0.970493 0.070031 -0.230734
vn 0.942604 0.001619 -0.333909
vn 0.824779 0.517538 0.227802
vn 0.884606 0.436606 -0.163853
vn 0.693195 0.591350 0.412050
vn -0.991647 0.092730 0.089655
vn -0.980304 0.087877 0.176868
vn -0.891888 0.325143 0.314354
vn -0.891888 0.325142 0.314354
vn 0.965135 -0.189057 -0.181028
vn 0.976293 -0.181769 0.117520
vn 0.973441 -0.218674 -0.067783
vn 0.593443 0.518799 0.615364
vn 0.573256 0.503630 0.646324
vn 0.381681 0.355522 0.853184
vn 0.381681 0.355522 0.853184
vn -0.721652 0.263082 0.640317
vn -0.721652 0.263082 0.640317
vn -0.721652 0.263082 0.640317
vn -0.721652 0.263082 0.640317
vn 0.236735 -0.279665 0.930454
vn 0.239162 -0.278206 0.930270
vn 0.372694 -0.192410 0.907787
vn 0.372694 -0.192410 0.907787
vn -0.007481 -0.410077 0.912020
vn -0.007481 -0.410077 0.912020
vn 0.107519 -0.352614 0.929571
vn 0.105663 -0.353596 0.929411
vn -0.971461 -0.169226 -0.166210
vn -0.956250 -0.238767 -0.169044
vn -0.794758 0.292694 -0.531686
vn -0.794758 0.292694 -0.531686
vn -0.794758 0.292694 -0.531686
vn -0.794758 0.292694 -0.531686
vn -0.683757 -0.437081 0.584325
vn -0.760658 -0.402705 0.509144
vn -0.829625 -0.363980 0.423369
vn -0.683757 -0.437081 0.584325
vn -0.175930 0.504044 -0.845570
vn -0.190147 0.320993 -0.927797
vn -0.292127 0.440886 -0.848694
vn -0.292127 0.440886 -0.848694
vn 0.204484 0.424851 -0.881866
vn -0.049842 0.561176 -0.826194
vn 0.254387 0.652331 -0.713969
vn 0.254387 0.652331 -0.713969
vn -0.801072 0.568794 0.186432
vn -0.801072 0.568794 0.186432
vn -0.801072 0.568794 0.186433
vn -0.398422 0.858085 0.323960
vn -0.398422 0.858085 0.323960
vn -0.398422 0.858085 0.323961
vn -0.295168 0.090510 -0.951149
vn -0.267711 0.090663 -0.959224
vn -0.267711 0.090663 -0.959224
vn 0.739935 0.069812 -0.669046
vn 0.753342 0.052916 -0.655496
vn -0.341966 0.935341 -0.090539
vn -0.384969 0.907595 0.167539
vn -0.384632 0.908261 0.164682
vn -0.341966 0.935341 -0.090539
vn 0.252816 -0.882562 0.396444
vn 0.252816 -0.882562 0.396444
vn 0.252816 -0.882562 0.396444
vn 0.252816 -0.882562 0.396444
vn -0.166606 0.304714 0.937759
vn -0.166606 0.304714 0.937759
vn -0.242293 0.494675 0.834620
vn -0.238333 0.484577 0.841655
vn -0.823471 -0.404402 -0.397937
vn -0.823471 -0.404403 -0.397937
vn -0.866597 -0.474768 0.153643
vn -0.302886 0.652329 0.694786
vn -0.302886 0.652329 0.694786
vn 0.652293 0.562220 0.508353
vn 0.867373 0.100840 0.487335
vn 0.933713 -0.208232 0.291239
vn 0.942455 0.146925 0.300318
vn 0.116481 0.895825 0.428871
vn 0.116481 0.895825 0.428871
vn 0.116481 0.895825 0.428871
vn 0.116481 0.895825 0.428871
vn 0.318173 0.933304 -0.166464
vn 0.317792 0.933269 -0.167381
vn 0.308567 0.932176 -0.189299
vn 0.308567 0.932176 -0.189299
vn 0.700982 0.574725 -0.422275
vn 0.700982 0.574725 -0.422275
vn 0.919143 -0.287688 0.269093
vn -0.721652 0.263082 0.640317
vn -0.302886 0.652329 0.694785
vn -0.801072 0.568794 0.186432
vn -0.801072 0.568794 0.186432
vn 0.761285 0.042588 -0.647018
vn 0.327283 0.933848 -0.144267
vn 0.327283 0.933848 -0.144267
vn -0.809217 0.048013 0.585545
vn -0.809217 0.048013 0.585545
vn -0.809217 0.048013 0.585545
vn -0.809217 0.048013 0.585545
s 1
g pPlatonic1
usemtl initialShadingGroup
f 3/1/1 14/2/2 17/53/3 1/54/4
s 2
f 1/4/5 40/5/6 44/6/7 34/7/8
f 45/8/9 39/9/10 38/10/11
s 3
f 4/11/12 28/12/13 27/13/14 2/14/15
s 2
f 1/4/16 34/7/17 19/15/18
f 32/16/19 37/17/20 24/18/21 23/19/22
s 5
f 25/20/23 27/48/24 8/21/25 22/22/26
s 6
f 23/19/27 20/23/28 33/24/29 32/16/30
f 8/21/31 9/56/32 21/26/33 22/22/34
s 3
f 4/11/12 7/27/35 31/28/36 28/12/13
s off
f 4/11/37 5/29/38 6/30/39 7/27/40
s 3
f 8/49/41 26/31/42 30/32/43 9/25/44
s 1
f 10/33/45 15/34/46 6/30/47 5/29/48
f 16/35/49 13/52/50 42/37/51 41/38/52
s 8
f 11/39/53 4/11/54 2/14/55
s 9
f 35/40/56 2/14/57 36/41/58
s 1
f 15/34/46 3/1/59 7/27/60 6/30/61
f 17/3/3 16/35/49 41/38/62 40/5/63
f 10/33/45 13/36/50 16/51/49 15/34/46
s 9
f 10/33/64 11/39/65 12/55/66 13/36/67
s 1
f 14/2/2 15/34/46 16/51/49 17/53/3
s 6
f 21/26/33 20/23/28 23/19/27 22/22/34
s off
f 18/43/68 19/15/69 20/23/70 21/26/71
s 11
f 22/22/72 23/19/73 24/18/74 25/20/75
s 3
f 29/44/76 31/28/36 7/27/35 3/1/77
f 26/31/42 28/12/13 31/28/36 30/32/43
f 29/44/78 30/32/43 31/28/36
s 11
f 37/17/79 36/46/80 25/20/75 24/18/74
s 2
f 32/16/19 43/45/81 45/8/9 38/10/11 37/17/20
f 32/16/82 33/24/83 43/45/84
s off
f 35/50/85 36/46/86 37/17/87 38/10/88
s 13
f 39/9/89 12/42/90 35/50/91 38/10/92
s 2
f 40/5/6 39/9/10 45/8/9 44/6/7
f 39/9/10 40/5/6 41/38/93 42/37/94
f 43/45/84 44/6/7 45/8/9
f 19/15/18 34/7/17 33/24/83 20/23/95
f 43/45/84 33/24/83 34/7/17 44/6/7
s 5
f 2/14/96 27/13/24 25/47/23
s 11
f 25/47/75 36/41/80 2/14/97
s 9
f 12/55/66 11/39/65 2/14/57 35/40/56
s 8
f 11/39/53 10/33/98 5/29/99 4/11/54
s 1
f 15/34/46 14/2/2 3/1/59
f 17/3/3 40/5/63 1/4/100
s 13
f 39/9/89 42/37/101 13/52/102 12/42/90
s off
f 28/12/103 26/31/104 8/49/105 27/13/106
