# This file uses centimeters as units for non-parametric coordinates.

mtllib pillar.mtl
g default
v 52.806266 5.706639 -78.698132
v 50.653590 5.706639 -74.598468
v 54.753255 5.706639 -72.445793
v 56.905932 5.706639 -76.545457
v 47.975612 -0.715332 -73.764540
v 55.587182 -0.715332 -69.767815
v 55.587182 2.664661 -69.767815
v 47.975612 2.664661 -73.764540
v 51.972335 2.664661 -81.376102
v 59.583902 2.664661 -77.379379
v 59.583902 -0.715332 -77.379379
v 51.972335 -0.715332 -81.376102
v 52.336853 2.664661 -80.205529
v 49.146188 2.664661 -74.129057
v 49.146188 5.706639 -74.129057
v 52.336853 5.706639 -80.205529
v 55.222662 2.664661 -70.938398
v 55.222662 5.706639 -70.938398
v 58.413325 2.664661 -77.014862
v 58.413325 5.706639 -77.014862
v 50.653590 20.721828 -74.598468
v 52.806266 30.821407 -78.698132
v 56.905932 23.587882 -76.545457
v 54.753255 22.099508 -72.445793
vt 0.531819 0.989781
vt 0.263916 0.921963
vt 0.774170 0.827120
vt 0.793494 0.912891
vt 0.527848 0.863499
vt 0.690505 0.039685
vt 0.741691 0.704282
vt 0.329367 0.803679
vt 0.000000 0.050715
vt 0.323670 0.703371
vt 0.134331 0.025168
vt 0.839553 0.308325
vt 0.453352 0.743453
vt 0.932088 0.407629
vt 0.956027 0.626487
vt 0.526844 0.891596
vt 0.762553 0.818055
vt 0.768301 0.254021
vt 0.679514 0.297994
vt 0.567667 0.072164
vt 0.530875 0.771270
vt 0.701396 0.721922
vt 0.882400 0.535085
vt 0.702115 0.624375
vt 0.770413 0.000109
vt 0.859702 0.180394
vt 0.839887 0.192051
vt 0.973310 0.216993
vt 0.999465 0.255174
vt 0.494961 0.125219
vt 0.435721 0.068829
vt 0.447378 0.113617
vt 0.957898 0.035872
vt 0.980847 0.076061
vt 0.216636 0.456511
vt 0.141617 0.773688
vt 0.345465 0.620051
vt 0.356395 0.475160
vt 0.487995 0.635918
vt 0.608132 0.242666
vt 0.548610 0.764966
vt 0.541063 0.000000
vt 0.779795 0.219970
vt 0.268574 0.000116
vt 0.297558 0.820673
vt 0.921975 0.614993
vt 0.355067 0.714881
vt 0.730197 0.738333
vt 1.000000 0.715274
vt 0.656454 0.028191
vt 0.727200 0.802019
vt 0.801706 0.218206
vt 0.450515 0.112321
vt 0.273875 0.011774
vt 0.318662 0.000118
vt 0.318690 0.222194
vt 0.331589 0.177747
vt 0.826956 0.000119
vt 0.786767 0.023069
vn -0.464893 0.000000 0.885367
vn -0.464893 0.000000 0.885367
vn -0.464893 0.000000 0.885367
vn -0.464893 0.000000 0.885367
vn 0.464893 0.000000 -0.885367
vn 0.464893 0.000000 -0.885367
vn 0.464893 0.000000 -0.885367
vn 0.464893 0.000000 -0.885367
vn 0.885367 0.000000 0.464893
vn 0.885367 0.000000 0.464893
vn 0.885367 0.000000 0.464893
vn 0.885367 0.000000 0.464893
vn -0.885367 0.000000 -0.464893
vn -0.885367 0.000000 -0.464893
vn -0.885367 0.000000 -0.464893
vn -0.885367 0.000000 -0.464893
vn -0.885367 0.000000 -0.464894
vn -0.885367 0.000000 -0.464894
vn -0.885367 0.000000 -0.464894
vn -0.885367 0.000000 -0.464894
vn 0.464893 0.000000 -0.885367
vn 0.464893 0.000000 -0.885367
vn 0.464893 0.000000 -0.885367
vn 0.464893 0.000000 -0.885367
vn 0.885367 0.000000 0.464894
vn 0.885367 0.000000 0.464894
vn 0.885367 0.000000 0.464894
vn 0.885367 0.000000 0.464894
vn -0.464893 0.000000 0.885367
vn -0.464893 0.000000 0.885367
vn -0.464893 0.000000 0.885367
vn -0.464893 0.000000 0.885367
vn -0.885367 0.000000 -0.464893
vn -0.885367 0.000000 -0.464893
vn -0.885367 0.000000 -0.464893
vn -0.885367 0.000000 -0.464893
vn -0.464892 0.000000 0.885367
vn -0.464892 0.000000 0.885367
vn -0.464892 0.000000 0.885367
vn -0.464892 0.000000 0.885367
vn 0.885367 0.000000 0.464893
vn 0.885367 0.000000 0.464893
vn 0.885367 0.000000 0.464893
vn 0.885367 0.000000 0.464893
vn 0.464893 0.000000 -0.885367
vn 0.464893 0.000000 -0.885367
vn 0.464893 0.000000 -0.885367
vn 0.464893 0.000000 -0.885367
vn 0.000000 1.000000 0.000000
vn 0.000000 1.000000 0.000000
vn 0.000000 1.000000 0.000000
vn 0.000000 1.000000 0.000000
vn 0.000000 1.000000 0.000000
vn 0.000000 1.000000 0.000000
vn 0.000000 1.000000 0.000000
vn 0.000000 1.000000 0.000000
vn 0.000000 1.000000 0.000000
vn 0.000000 1.000000 0.000000
vn 0.000000 1.000000 0.000000
vn 0.000000 1.000000 0.000000
vn 0.000000 1.000000 -0.000000
vn 0.000000 1.000000 -0.000000
vn 0.000000 1.000000 -0.000000
vn 0.000000 1.000000 -0.000000
vn 0.000000 1.000000 -0.000001
vn 0.000000 1.000000 -0.000001
vn 0.000000 1.000000 -0.000001
vn 0.000000 1.000000 -0.000001
vn 0.000000 1.000000 -0.000000
vn 0.000000 1.000000 -0.000000
vn 0.000000 1.000000 -0.000000
vn 0.000000 1.000000 -0.000000
vn 0.000000 1.000000 -0.000000
vn 0.000000 1.000000 -0.000000
vn 0.000000 1.000000 -0.000000
vn 0.000000 1.000000 -0.000000
vn 0.000000 1.000000 -0.000000
vn 0.000000 1.000000 -0.000000
vn 0.000000 1.000000 -0.000000
vn 0.000000 1.000000 -0.000000
vn -0.012703 0.580698 0.814020
vn -0.012703 0.580698 0.814020
vn -0.012703 0.580698 0.814020
vn -0.012703 0.580698 0.814020
s off
g broken_pillar
usemtl initialShadingGroup
f 5/1/1 6/2/2 7/45/3 8/16/4
f 9/50/5 10/18/6 11/19/7 12/20/8
f 6/49/9 11/3/10 10/48/11 7/15/12
f 12/4/13 5/1/14 8/16/15 9/17/16
f 1/9/17 2/11/18 21/35/19 22/36/20
f 22/42/21 23/40/22 4/13/23 1/10/24
f 3/12/25 4/14/26 23/41/27 24/39/28
f 2/11/29 3/44/30 24/38/31 21/35/32
f 13/51/33 14/5/34 15/21/35 16/22/36
f 14/5/37 17/8/38 18/47/39 15/21/40
f 17/46/41 19/7/42 20/24/43 18/23/44
f 16/25/45 20/26/46 19/43/47 13/6/48
f 2/27/49 1/28/50 16/29/51 15/52/52
f 3/57/53 2/53/54 15/30/55 18/56/56
f 4/55/57 3/31/58 18/32/59 20/54/60
f 1/58/61 4/33/62 20/34/63 16/59/64
f 8/16/65 7/45/66 17/8/67 14/5/68
f 7/15/69 10/48/70 19/7/71 17/46/72
f 10/18/73 9/50/74 13/6/75 19/43/76
f 9/17/77 8/16/78 14/5/79 13/51/80
f 23/37/81 22/36/82 21/35/83 24/38/84
